<?xml version="1.0" encoding="UTF-8" standalone="no"?><svg xmlns="http://www.w3.org/2000/svg" xmlns:xlink="http://www.w3.org/1999/xlink" contentScriptType="application/ecmascript" contentStyleType="text/css" height="367px" preserveAspectRatio="none" style="width:170px;height:367px;" version="1.1" viewBox="0 0 170 367" width="170px" zoomAndPan="magnify"><defs><filter height="300%" id="f19jvh7horoslp" width="300%" x="-1" y="-1"><feGaussianBlur result="blurOut" stdDeviation="2.0"/><feColorMatrix in="blurOut" result="blurOut2" type="matrix" values="0 0 0 0 0 0 0 0 0 0 0 0 0 0 0 0 0 0 .4 0"/><feOffset dx="4.0" dy="4.0" in="blurOut2" result="blurOut3"/><feBlend in="SourceGraphic" in2="blurOut3" mode="normal"/></filter></defs><g><!--class Country--><rect fill="#F8F8F8" filter="url(#f19jvh7horoslp)" height="112.0234" id="Country" style="stroke: #383838; stroke-width: 1.5;" width="94" x="35.25" y="8"/><ellipse cx="56.1" cy="24" fill="#FFFFFF" rx="11" ry="11" style="stroke: #383838; stroke-width: 1.0;"/><path d="M53.3813,27.25 L53.1938,27.25 C52.7719,27.25 52.6156,27.2813 52.4438,27.375 C52.1781,27.5313 52.0063,27.8281 52.0063,28.1094 C52.0063,28.3906 52.1625,28.6719 52.3813,28.8281 C52.5531,28.9531 52.8031,29 53.1938,29 L58.2094,29 C60.2719,29 61.6313,27.9531 61.6313,26.3281 C61.6313,25.3281 61.0531,24.5313 59.8969,23.9844 C60.5844,23.4531 60.8969,22.8906 60.8969,22.1563 C60.8969,20.5625 59.4438,19.4063 57.4906,19.4063 L53.1938,19.4063 C52.7719,19.4063 52.6,19.4531 52.4438,19.5313 C52.1781,19.6875 52.0063,19.9844 52.0063,20.2813 C52.0063,20.5625 52.1625,20.8438 52.3813,21 C52.5688,21.125 52.7563,21.1563 53.1938,21.1563 L53.3813,21.1563 L53.3813,27.25 Z M55.2094,23.3281 L55.2094,21.1563 L57.4125,21.1563 C58.4438,21.1563 59.0531,21.5313 59.0531,22.125 C59.0531,22.8438 58.2406,23.3281 57.0688,23.3281 L55.2094,23.3281 Z M55.2094,27.25 L55.2094,25.0781 L57.4438,25.0781 C58.1469,25.0781 58.6625,25.1875 59.0844,25.4375 C59.5063,25.6719 59.7875,26.0781 59.7875,26.4375 C59.7875,26.9844 59.225,27.25 58.1156,27.25 L55.2094,27.25 Z "/><text fill="#000000" font-family="sans-serif" font-size="12" font-style="italic" lengthAdjust="spacingAndGlyphs" textLength="49" x="71.4" y="28.1543">Country</text><line style="stroke: #383838; stroke-width: 1.5;" x1="36.25" x2="128.25" y1="40" y2="40"/><ellipse cx="46.25" cy="68.707" fill="none" rx="3" ry="3" style="stroke: #545454; stroke-width: 1.0;"/><text fill="#000000" font-family="sans-serif" font-size="11" lengthAdjust="spacingAndGlyphs" textLength="21" x="55.25" y="71.0151">title</text><ellipse cx="46.25" cy="81.5117" fill="none" rx="3" ry="3" style="stroke: #545454; stroke-width: 1.0;"/><text fill="#000000" font-family="sans-serif" font-size="11" lengthAdjust="spacingAndGlyphs" textLength="68" x="55.25" y="83.8198">phone_code</text><line style="stroke: #383838; stroke-width: 1.0; stroke-dasharray: 1.0,2.0;" x1="36.25" x2="66.75" y1="54.4023" y2="54.4023"/><text fill="#000000" font-family="sans-serif" font-size="11" lengthAdjust="spacingAndGlyphs" textLength="31" x="66.75" y="57.7104">fields</text><line style="stroke: #383838; stroke-width: 1.0; stroke-dasharray: 1.0,2.0;" x1="97.75" x2="128.25" y1="54.4023" y2="54.4023"/><polygon fill="none" points="46.25,106.1211,50.25,110.1211,46.25,114.1211,42.25,110.1211" style="stroke: #8C8C8C; stroke-width: 1.0;"/><text fill="#000000" font-family="sans-serif" font-size="11" lengthAdjust="spacingAndGlyphs" textLength="21" x="55.25" y="113.4292">title</text><line style="stroke: #383838; stroke-width: 1.0; stroke-dasharray: 1.0,2.0;" x1="36.25" x2="60.25" y1="96.8164" y2="96.8164"/><text fill="#000000" font-family="sans-serif" font-size="11" lengthAdjust="spacingAndGlyphs" textLength="44" x="60.25" y="100.1245">indexes</text><line style="stroke: #383838; stroke-width: 1.0; stroke-dasharray: 1.0,2.0;" x1="104.25" x2="128.25" y1="96.8164" y2="96.8164"/><!--class City--><rect fill="#F8F8F8" filter="url(#f19jvh7horoslp)" height="176.0469" id="City" style="stroke: #383838; stroke-width: 1.5;" width="153" x="6" y="180"/><ellipse cx="66.75" cy="196" fill="#7F7F7F" rx="11" ry="11" style="stroke: #383838; stroke-width: 1.0;"/><path d="M70.6094,192.3125 C70.6094,191.875 70.5938,191.75 70.4844,191.5781 C70.3281,191.3281 70.0313,191.1719 69.7031,191.1719 C69.3594,191.1719 69.1719,191.3125 69.0156,191.6875 C68.4531,191.3594 67.6875,191.1719 66.8125,191.1719 C64.6719,191.1719 63.0781,192.4375 63.0781,194.0938 C63.0781,195.0469 63.625,195.9375 64.5,196.4063 C65.0625,196.7188 65.5938,196.875 66.7344,197.0625 C67.8594,197.2656 68.125,197.3281 68.5,197.5 C68.8438,197.6719 69.0625,197.9688 69.0625,198.2813 C69.0625,198.9375 68.1094,199.4531 66.8906,199.4531 C65.7969,199.4531 64.7344,199 64.5781,198.4531 C64.4375,198.0156 64.4375,198.0156 64.3125,197.875 C64.1406,197.7188 63.9063,197.6406 63.6563,197.6406 C63.3594,197.6406 63.0938,197.7656 62.9063,197.9844 C62.7813,198.1563 62.7344,198.3438 62.7344,198.7656 L62.7344,199.8438 C62.7344,200.6094 63.0469,200.9844 63.6563,200.9844 C63.9375,200.9844 64.0938,200.8906 64.375,200.6094 C65.2344,201.0313 66.0781,201.2188 67,201.2188 C69.3594,201.2188 70.9688,200.0469 70.9688,198.3125 C70.9688,197.4531 70.625,196.7656 69.9375,196.2344 C69.4063,195.8281 68.7344,195.5938 67.2344,195.3438 C65.9531,195.0938 65.8906,195.0781 65.5625,194.9063 C65.2188,194.7656 64.9844,194.4063 64.9844,194.0781 C64.9844,193.4375 65.7969,192.9219 66.8281,192.9219 C67.875,192.9219 68.6406,193.3438 68.7813,193.9688 C68.9063,194.5 68.9063,194.5 69.0469,194.6406 C69.2031,194.7969 69.4531,194.8906 69.7031,194.8906 C70,194.8906 70.25,194.7656 70.4375,194.5469 C70.5781,194.3594 70.6094,194.2188 70.6094,193.7656 L70.6094,192.3125 Z "/><text fill="#000000" font-family="sans-serif" font-size="12" font-style="italic" lengthAdjust="spacingAndGlyphs" textLength="23" x="87.25" y="200.1543">City</text><line style="stroke: #383838; stroke-width: 1.5;" x1="7" x2="158" y1="212" y2="212"/><ellipse cx="17" cy="240.707" fill="none" rx="3" ry="3" style="stroke: #545454; stroke-width: 1.0;"/><text fill="#000000" font-family="sans-serif" font-size="11" lengthAdjust="spacingAndGlyphs" textLength="21" x="26" y="243.0151">title</text><ellipse cx="17" cy="253.5117" fill="none" rx="3" ry="3" style="stroke: #545454; stroke-width: 1.0;"/><text fill="#000000" font-family="sans-serif" font-size="11" lengthAdjust="spacingAndGlyphs" textLength="42" x="26" y="255.8198">country</text><ellipse cx="17" cy="266.3164" fill="none" rx="3" ry="3" style="stroke: #545454; stroke-width: 1.0;"/><text fill="#000000" font-family="sans-serif" font-size="11" lengthAdjust="spacingAndGlyphs" textLength="59" x="26" y="268.6245">population</text><ellipse cx="17" cy="279.1211" fill="none" rx="3" ry="3" style="stroke: #545454; stroke-width: 1.0;"/><text fill="#000000" font-family="sans-serif" font-size="11" lengthAdjust="spacingAndGlyphs" textLength="37" x="26" y="281.4292">capital</text><line style="stroke: #383838; stroke-width: 1.0; stroke-dasharray: 1.0,2.0;" x1="7" x2="67" y1="226.4023" y2="226.4023"/><text fill="#000000" font-family="sans-serif" font-size="11" lengthAdjust="spacingAndGlyphs" textLength="31" x="67" y="229.7104">fields</text><line style="stroke: #383838; stroke-width: 1.0; stroke-dasharray: 1.0,2.0;" x1="98" x2="158" y1="226.4023" y2="226.4023"/><polygon fill="none" points="17,303.7305,21,307.7305,17,311.7305,13,307.7305" style="stroke: #8C8C8C; stroke-width: 1.0;"/><text fill="#000000" font-family="sans-serif" font-size="11" lengthAdjust="spacingAndGlyphs" textLength="127" x="26" y="311.0386">primary [title, country]</text><polygon fill="none" points="17,316.5352,21,320.5352,17,324.5352,13,320.5352" style="stroke: #8C8C8C; stroke-width: 1.0;"/><text fill="#000000" font-family="sans-serif" font-size="11" lengthAdjust="spacingAndGlyphs" textLength="21" x="26" y="323.8433">title</text><polygon fill="none" points="17,329.3398,21,333.3398,17,337.3398,13,333.3398" style="stroke: #8C8C8C; stroke-width: 1.0;"/><text fill="#000000" font-family="sans-serif" font-size="11" lengthAdjust="spacingAndGlyphs" textLength="42" x="26" y="336.6479">country</text><polygon fill="none" points="17,342.1445,21,346.1445,17,350.1445,13,346.1445" style="stroke: #8C8C8C; stroke-width: 1.0;"/><text fill="#000000" font-family="sans-serif" font-size="11" lengthAdjust="spacingAndGlyphs" textLength="59" x="26" y="349.4526">population</text><line style="stroke: #383838; stroke-width: 1.0; stroke-dasharray: 1.0,2.0;" x1="7" x2="60.5" y1="294.4258" y2="294.4258"/><text fill="#000000" font-family="sans-serif" font-size="11" lengthAdjust="spacingAndGlyphs" textLength="44" x="60.5" y="297.7339">indexes</text><line style="stroke: #383838; stroke-width: 1.0; stroke-dasharray: 1.0,2.0;" x1="104.5" x2="158" y1="294.4258" y2="294.4258"/><!--link Country to City--><path d="M82.25,133.558 C82.25,148.477 82.25,164.452 82.25,179.978 " fill="none" id="Country-City" style="stroke: #383838; stroke-width: 1.0;"/><polygon fill="#FFFFFF" points="82.25,120.197,78.25,126.197,82.25,132.197,86.25,126.197,82.25,120.197" style="stroke: #383838; stroke-width: 1.0;"/><text fill="#000000" font-family="sans-serif" font-size="13" lengthAdjust="spacingAndGlyphs" textLength="8" x="72.6406" y="140.0336">1</text><text fill="#000000" font-family="sans-serif" font-size="13" lengthAdjust="spacingAndGlyphs" textLength="7" x="73.9012" y="168.9597">*</text><!--
@startuml
skinparam monochrome true
hide empty members

abstract class Country << (B,white) >> {
.. fields ..
+ title
+ phone_code
.. indexes ..
# title
}

abstract class City << (S,gray) >> {
.. fields ..
+ title
+ country
+ population
+ capital
.. indexes ..
# primary [title, country]
# title
# country
# population
}

Country "1" o- - "*" City

@enduml

PlantUML version 1.2018.01(Sun Jan 28 18:08:22 UTC 2018)
(GPL source distribution)
Java Runtime: OpenJDK Runtime Environment
JVM: OpenJDK 64-Bit Server VM
Java Version: 1.8.0_302-b08
Operating System: Linux
OS Version: 3.10.0-1062.12.1.el7.x86_64
Default Encoding: UTF-8
Language: en
Country: US
--></g></svg>